<svg width="95.041" height="32.705" viewBox="0 0 95.041 32.705" xmlns="http://www.w3.org/2000/svg"><g id="svgGroup" stroke-linecap="round" fill-rule="evenodd" font-size="9pt" stroke="#ffffff" stroke-width="0.25mm" fill="#ffffff" style="stroke:#ffffff;stroke-width:0.25mm;fill:#ffffff"><path d="M 9.6 31.744 L 0 31.744 L 0 31.104 L 1.664 30.72 A 8.224 8.224 0 0 0 2.765 30.404 Q 3.511 30.129 4.064 29.728 Q 4.992 29.056 5.824 27.84 L 12.736 17.92 L 4.032 4.096 Q 3.392 3.136 2.88 2.624 A 2.208 2.208 0 0 0 2.392 2.263 Q 2.147 2.126 1.837 2.017 A 5.429 5.429 0 0 0 1.28 1.856 L 0.384 1.6 L 0.384 0.96 L 16.64 0.96 L 16.64 1.6 L 15.552 1.856 A 3.432 3.432 0 0 0 14.973 2.093 Q 13.509 2.87 14.656 4.672 L 19.904 12.8 L 25.6 4.928 A 6.304 6.304 0 0 0 25.926 4.368 Q 26.273 3.686 26.273 3.169 A 1.489 1.489 0 0 0 26.272 3.104 A 0.857 0.857 0 0 0 25.937 2.466 Q 25.647 2.225 25.11 2.072 A 4.298 4.298 0 0 0 25.024 2.048 L 23.424 1.6 L 23.424 0.96 L 32.768 0.96 L 32.768 1.6 L 31.232 1.984 Q 30.243 2.254 29.569 2.635 A 3.977 3.977 0 0 0 29.056 2.976 Q 28.54 3.385 27.966 4.097 A 14.212 14.212 0 0 0 27.392 4.864 L 20.672 13.952 L 29.44 27.584 A 7.719 7.719 0 0 0 31.295 29.62 A 6.932 6.932 0 0 0 33.728 30.784 L 34.752 31.104 L 34.752 31.744 L 17.088 31.744 L 17.088 31.104 L 18.176 30.848 Q 19.264 30.592 19.552 29.792 A 1.518 1.518 0 0 0 19.641 29.274 Q 19.641 28.788 19.351 28.232 A 3.908 3.908 0 0 0 19.2 27.968 L 13.568 19.2 L 7.488 28.032 Q 6.929 28.777 6.929 29.37 A 1.15 1.15 0 0 0 7.008 29.792 A 1.442 1.442 0 0 0 7.632 30.511 Q 7.92 30.684 8.32 30.784 L 9.6 31.104 L 9.6 31.744 Z M 70.784 30.144 L 70.848 22.528 L 71.488 22.528 L 73.664 26.368 A 15.901 15.901 0 0 0 74.749 28.088 Q 75.359 28.923 76.016 29.545 A 7.932 7.932 0 0 0 76.768 30.176 Q 78.464 31.424 81.088 31.424 A 11.196 11.196 0 0 0 83.143 31.247 Q 84.839 30.93 86.048 30.048 A 4.696 4.696 0 0 0 87.322 28.695 Q 87.907 27.73 87.935 26.491 A 5.535 5.535 0 0 0 87.936 26.368 A 5.418 5.418 0 0 0 87.697 24.723 A 4.414 4.414 0 0 0 86.592 22.912 A 5.637 5.637 0 0 0 85.591 22.137 Q 84.513 21.463 82.785 20.861 A 27.662 27.662 0 0 0 81.6 20.48 L 78.912 19.648 A 16.239 16.239 0 0 1 75.914 18.449 A 11.589 11.589 0 0 1 72.768 16.064 A 8.398 8.398 0 0 1 70.533 10.44 A 10.828 10.828 0 0 1 70.528 10.112 A 9.127 9.127 0 0 1 73.441 3.329 A 12.05 12.05 0 0 1 73.856 2.944 A 10.809 10.809 0 0 1 77.83 0.76 Q 80.24 0 83.392 0 A 20.404 20.404 0 0 1 86.831 0.281 A 17.847 17.847 0 0 1 88.096 0.544 Q 90.304 1.088 92.352 2.176 L 91.968 9.088 L 91.328 9.088 L 89.088 5.12 Q 87.872 3.008 86.688 2.144 Q 85.504 1.28 83.136 1.28 Q 80.96 1.28 79.04 2.496 A 4.315 4.315 0 0 0 77.833 3.603 Q 77.187 4.495 77.126 5.7 A 5.03 5.03 0 0 0 77.12 5.952 A 4.668 4.668 0 0 0 77.4 7.601 A 4.103 4.103 0 0 0 78.752 9.408 Q 80.384 10.688 83.584 11.776 L 86.464 12.608 A 21.045 21.045 0 0 1 89.088 13.592 Q 91.692 14.786 93.056 16.48 Q 95.04 18.944 95.04 22.4 A 9.554 9.554 0 0 1 94.284 26.253 Q 93.373 28.348 91.36 29.888 A 12.4 12.4 0 0 1 87.414 31.862 Q 85.695 32.389 83.629 32.586 A 27.418 27.418 0 0 1 81.024 32.704 Q 77.888 32.704 75.392 31.968 A 27.194 27.194 0 0 1 71.899 30.682 A 23.808 23.808 0 0 1 70.784 30.144 Z M 55.104 14.272 L 55.104 9.216 Q 55.104 4.864 54.048 3.104 Q 52.992 1.344 50.752 1.344 Q 49.216 1.344 48.32 2.336 Q 47.424 3.328 47.168 5.76 L 47.04 6.464 Q 46.912 9.216 45.696 10.496 A 3.969 3.969 0 0 1 42.813 11.775 A 4.934 4.934 0 0 1 42.688 11.776 A 4.432 4.432 0 0 1 41.348 11.582 A 3.629 3.629 0 0 1 39.936 10.752 A 3.397 3.397 0 0 1 38.9 8.723 A 4.83 4.83 0 0 1 38.848 8 A 6.209 6.209 0 0 1 39.378 5.413 A 6.047 6.047 0 0 1 40.672 3.584 Q 42.496 1.792 45.504 0.896 Q 48.512 0 52.032 0 A 18.698 18.698 0 0 1 55.486 0.299 Q 58.745 0.913 60.832 2.784 A 8.365 8.365 0 0 1 63.057 6.152 Q 63.572 7.529 63.785 9.245 A 21.073 21.073 0 0 1 63.936 11.84 L 63.936 25.984 A 4.464 4.464 0 0 0 64.062 27.098 Q 64.432 28.528 65.882 28.8 A 4.024 4.024 0 0 0 66.624 28.864 L 68.032 28.864 L 68.608 29.376 Q 67.392 30.912 65.952 31.744 Q 64.934 32.333 63.324 32.505 A 13.525 13.525 0 0 1 61.888 32.576 Q 59.072 32.576 57.44 31.264 Q 55.808 29.952 55.296 27.776 Q 53.376 29.824 51.36 31.264 A 7.365 7.365 0 0 1 48.811 32.406 Q 47.789 32.658 46.593 32.697 A 13.674 13.674 0 0 1 46.144 32.704 A 10.786 10.786 0 0 1 43.048 32.278 A 8.756 8.756 0 0 1 39.904 30.592 A 6.846 6.846 0 0 1 37.565 26.544 A 10.365 10.365 0 0 1 37.376 24.512 Q 37.376 21.504 40.448 18.976 A 12.895 12.895 0 0 1 42.976 17.386 Q 45.576 16.111 49.474 15.297 A 45.912 45.912 0 0 1 50.112 15.168 Q 51.12 14.979 52.375 14.76 A 262.812 262.812 0 0 1 52.416 14.752 Q 53.696 14.528 55.104 14.272 Z M 55.104 26.304 L 55.104 15.552 L 53.824 15.808 Q 53.184 15.936 52.352 16.064 Q 49.408 16.832 47.648 18.656 A 6.121 6.121 0 0 0 46.064 21.733 A 8.926 8.926 0 0 0 45.888 23.552 A 9.062 9.062 0 0 0 45.995 24.995 Q 46.12 25.768 46.391 26.384 A 3.936 3.936 0 0 0 47.104 27.488 A 4.135 4.135 0 0 0 48.402 28.452 A 3.876 3.876 0 0 0 50.048 28.8 Q 51.328 28.8 52.448 28.192 Q 53.201 27.784 54.141 27.072 A 26.437 26.437 0 0 0 55.104 26.304 Z" vector-effect="non-scaling-stroke"/></g></svg>